<?xml version="1.0" encoding="UTF-8" standalone="no"?><svg xmlns="http://www.w3.org/2000/svg" xmlns:xlink="http://www.w3.org/1999/xlink" contentScriptType="application/ecmascript" contentStyleType="text/css" height="343px" preserveAspectRatio="none" style="width:465px;height:343px;background:#FFFFFF;" version="1.1" viewBox="0 0 465 343" width="465px" zoomAndPan="magnify"><defs><filter height="300%" id="f1ifdi7fec0v69" width="300%" x="-1" y="-1"><feGaussianBlur result="blurOut" stdDeviation="2.0"/><feColorMatrix in="blurOut" result="blurOut2" type="matrix" values="0 0 0 0 0 0 0 0 0 0 0 0 0 0 0 0 0 0 .4 0"/><feOffset dx="4.0" dy="4.0" in="blurOut2" result="blurOut3"/><feBlend in="SourceGraphic" in2="blurOut3" mode="normal"/></filter></defs><g><!--MD5=[df86c7edb43ffccca5c77127fc172015]
class Trace--><rect codeLine="3" fill="#FEFECE" filter="url(#f1ifdi7fec0v69)" height="132.8281" id="Trace" style="stroke:#A80036;stroke-width:1.5;" width="208" x="7" y="7"/><ellipse cx="90.25" cy="23" fill="#FF7700" rx="11" ry="11" style="stroke:#A80036;stroke-width:1.0;"/><path d="M90.6875,20.5313 L92.5313,20.5313 L92.5313,22.125 C92.5313,22.5156 92.5625,22.6875 92.6563,22.8281 C92.8125,23.0781 93.0938,23.2344 93.3906,23.2344 C93.6563,23.2344 93.9063,23.1094 94.0781,22.8906 C94.2188,22.7188 94.2344,22.5938 94.2344,22.125 L94.2344,18.8438 L85.4688,18.8438 L85.4688,22.125 C85.4688,22.5156 85.5,22.6875 85.5781,22.8281 C85.7344,23.0938 86.0313,23.2344 86.3125,23.2344 C86.5938,23.2344 86.8438,23.1094 87.0156,22.8906 C87.125,22.7188 87.1563,22.5781 87.1563,22.125 L87.1563,20.5313 L88.9844,20.5313 L88.9844,27.0469 L87.875,27.0469 C87.4375,27.0469 87.3125,27.0625 87.1563,27.1719 C86.9063,27.3281 86.75,27.6094 86.75,27.9063 C86.75,28.1563 86.8906,28.4219 87.1094,28.5781 C87.2656,28.7031 87.4844,28.75 87.875,28.75 L91.8125,28.75 C92.1406,28.75 92.4063,28.7031 92.5156,28.625 C92.7813,28.4844 92.9219,28.1875 92.9219,27.9063 C92.9219,27.625 92.7969,27.375 92.5625,27.2031 C92.4063,27.0781 92.2656,27.0469 91.8125,27.0469 L90.6875,27.0469 L90.6875,20.5313 Z " fill="#000000"/><text fill="#000000" font-family="sans-serif" font-size="12" font-style="italic" lengthAdjust="spacing" textLength="33" x="110.75" y="27.1543">Trace</text><line style="stroke:#A80036;stroke-width:1.5;" x1="8" x2="214" y1="39" y2="39"/><text fill="#000000" font-family="sans-serif" font-size="11" lengthAdjust="spacing" text-decoration="underline" textLength="47" x="13" y="53.2104">String id</text><text fill="#000000" font-family="sans-serif" font-size="11" lengthAdjust="spacing" text-decoration="underline" textLength="70" x="13" y="66.0151">String name</text><text fill="#000000" font-family="sans-serif" font-size="11" lengthAdjust="spacing" text-decoration="underline" textLength="70" x="13" y="78.8198">String[] path</text><line style="stroke:#A80036;stroke-width:1.0;stroke-dasharray:1.0,2.0;" x1="8" x2="214" y1="85.4141" y2="85.4141"/><text fill="#000000" font-family="sans-serif" font-size="11" lengthAdjust="spacing" textLength="196" x="13" y="99.6245">Map&lt;Type, Properties&gt; properties</text><line style="stroke:#A80036;stroke-width:1.0;stroke-dasharray:1.0,2.0;" x1="8" x2="214" y1="106.2188" y2="106.2188"/><text fill="#000000" font-family="sans-serif" font-size="11" lengthAdjust="spacing" textLength="106" x="13" y="120.4292">List&lt;DataStream&gt;</text><text fill="#000000" font-family="sans-serif" font-size="11" lengthAdjust="spacing" textLength="118" x="13" y="133.2339">List&lt;Trace&gt; children</text><!--MD5=[50cd0ce30480505486a438a40998d2af]
class DataStream--><rect codeLine="14" fill="#FEFECE" filter="url(#f1ifdi7fec0v69)" height="112.0234" id="DataStream" style="stroke:#A80036;stroke-width:1.5;" width="131" x="45.5" y="217"/><ellipse cx="72.65" cy="233" fill="#DA70D6" rx="11" ry="11" style="stroke:#A80036;stroke-width:1.0;"/><path d="M70.1656,236.2969 C69.5094,236.2969 69.1188,236.6094 69.1188,237.1563 C69.1188,237.4063 69.2594,237.6719 69.4781,237.8281 C69.6344,237.9531 69.8531,238 70.2594,238 L73.7281,238 C75.2125,238 76.2281,237.6094 77.0563,236.7188 C77.8375,235.9063 78.2438,234.8594 78.2438,233.6094 L78.2438,232.8125 C78.2438,230.1406 76.3531,228.0938 73.8688,228.0938 L70.2594,228.0938 C69.8063,228.0938 69.6813,228.1094 69.525,228.2031 C69.275,228.3594 69.1188,228.6563 69.1188,228.9375 C69.1188,229.4844 69.4938,229.7813 70.1656,229.7813 L70.1656,236.2969 Z M71.8531,236.2969 L71.8531,229.7813 L73.7281,229.7813 C74.6344,229.7813 75.275,230.0625 75.7906,230.6563 C76.275,231.2344 76.5563,231.9844 76.5563,232.7813 L76.5563,233.5625 C76.5563,234.4375 76.3219,235.0313 75.8531,235.5469 C75.3219,236.0938 74.7594,236.2969 73.7438,236.2969 L71.8531,236.2969 Z " fill="#000000"/><text fill="#000000" font-family="sans-serif" font-size="12" font-style="italic" lengthAdjust="spacing" textLength="72" x="89.35" y="237.1543">DataStream</text><line style="stroke:#A80036;stroke-width:1.5;" x1="46.5" x2="175.5" y1="249" y2="249"/><text fill="#000000" font-family="sans-serif" font-size="11" lengthAdjust="spacing" text-decoration="underline" textLength="63" x="51.5" y="263.2104">String type</text><text fill="#000000" font-family="sans-serif" font-size="11" lengthAdjust="spacing" text-decoration="underline" textLength="73" x="51.5" y="276.0151">String length</text><text fill="#000000" font-family="sans-serif" font-size="11" lengthAdjust="spacing" text-decoration="underline" textLength="63" x="51.5" y="288.8198">byte[] data</text><line style="stroke:#A80036;stroke-width:1.0;stroke-dasharray:1.0,2.0;" x1="46.5" x2="175.5" y1="295.4141" y2="295.4141"/><text fill="#000000" font-family="sans-serif" font-size="11" lengthAdjust="spacing" textLength="84" x="51.5" y="309.6245">String fileType</text><text fill="#000000" font-family="sans-serif" font-size="11" lengthAdjust="spacing" textLength="119" x="51.5" y="322.4292">Properties properties</text><!--MD5=[fb06886e19d901fa862b82bf8e3130a2]
reverse link Trace to Trace--><path codeLine="23" d="M228.466,57.056 C241.545,60.165 250,65.646 250,73.5 C250,83.758 235.576,89.969 215.264,92.132 " fill="none" id="Trace-backto-Trace" style="stroke:#A80036;stroke-width:1.0;"/><polygon fill="#A80036" points="215.264,54.868,220.5291,59.7953,227.1025,56.8303,221.8373,51.903,215.264,54.868" style="stroke:#A80036;stroke-width:1.0;"/><text fill="#000000" font-family="sans-serif" font-size="13" lengthAdjust="spacing" textLength="196" x="256" y="78.0669">a trace could have child traces</text><!--MD5=[1c8c088d66d441b7bb3e5365796f8ca5]
reverse link Trace to DataStream--><path codeLine="24" d="M111,153.292 C111,174.542 111,197.079 111,216.741 " fill="none" id="Trace-backto-DataStream" style="stroke:#A80036;stroke-width:1.0;"/><polygon fill="#A80036" points="111,140.265,107,146.265,111,152.265,115,146.265,111,140.265" style="stroke:#A80036;stroke-width:1.0;"/><text fill="#000000" font-family="sans-serif" font-size="13" lengthAdjust="spacing" textLength="209" x="112" y="183.0669">a trace could have data streams</text><!--MD5=[301865a2716401ae266beb548d3a6457]
@startuml
hide empty methods

    Interface Trace << (T,#FF7700 >> {
      {static} String id
      {static} String name
      {static} String[] path
      ..
      Map<Type, Properties> properties
      ..
      List<DataStream>
      List<Trace> children
    }

    Interface DataStream  << (D,orchid>> {
      {static} String type
      {static} String length
      {static} byte[] data
      ..
      String fileType
      Properties properties
    }

    Trace *- - Trace : a trace could have child traces
    Trace *- - DataStream : a trace could have data streams
@enduml

PlantUML version 1.2021.11beta6(Unknown compile time)
(GPL source distribution)
Java Runtime: Java(TM) SE Runtime Environment
JVM: Java HotSpot(TM) 64-Bit Server VM
Default Encoding: UTF-8
Language: en
Country: US
--></g></svg>